<?xml version="1.0" encoding="UTF-8" standalone="no"?>
<!-- Created with Inkscape (http://www.inkscape.org/) -->

<svg
   width="16mm"
   height="16mm"
   viewBox="0 0 16 16"
   version="1.1"
   id="svg5"
   inkscape:version="1.1.2 (76b9e6a115, 2022-02-25)"
   sodipodi:docname="icon.svg"
   xmlns:inkscape="http://www.inkscape.org/namespaces/inkscape"
   xmlns:sodipodi="http://sodipodi.sourceforge.net/DTD/sodipodi-0.dtd"
   xmlns="http://www.w3.org/2000/svg"
   xmlns:svg="http://www.w3.org/2000/svg">
  <sodipodi:namedview
     id="namedview7"
     pagecolor="#ffffff"
     bordercolor="#666666"
     borderopacity="1.0"
     inkscape:pageshadow="2"
     inkscape:pageopacity="0.0"
     inkscape:pagecheckerboard="0"
     inkscape:document-units="mm"
     showgrid="false"
     width="16mm"
     inkscape:zoom="3.0075196"
     inkscape:cx="17.788745"
     inkscape:cy="62.343733"
     inkscape:window-width="1920"
     inkscape:window-height="1016"
     inkscape:window-x="0"
     inkscape:window-y="27"
     inkscape:window-maximized="1"
     inkscape:current-layer="layer1" />
  <defs
     id="defs2" />
  <g
     inkscape:label="Layer 1"
     inkscape:groupmode="layer"
     id="layer1">
    <rect
       style="fill:#b3b3b3;stroke:#000000;stroke-width:0.126667"
       id="rect846"
       width="15.986152"
       height="15.905308"
       x="0.11864983"
       y="0.073433086" />
    <path
       style="fill:#ff0000;stroke:#000000;stroke-width:0.264583"
       id="path1159"
       d="m -0.30357384,16.019643 c 0.24422991,0.0063 0.48868917,0.0057 0.73302055,0.01125 0.17646121,0.0051 0.35573911,0.01077 0.52944164,-0.02628 0.13695285,-0.02922 0.16108505,-0.04161 0.29400475,-0.08636 1.3404322,-0.532254 0.2609673,-0.09592 3.5175769,-2.006193 0.042012,-0.02464 0.074788,-0.0625 0.1103275,-0.0958 0.034476,-0.03231 0.069947,-0.06407 0.099565,-0.100884 0.057365,-0.0713 0.1005329,-0.152951 0.1520211,-0.228604 0.1255871,-0.201552 0.2116714,-0.429421 0.2749193,-0.657757 0.057289,-0.242145 0.071957,-0.492477 0.09429,-0.739798 0.00582,-0.123271 0.044194,-0.284049 0.012478,-0.405659 C 5.4912185,11.59593 5.4317563,11.495889 5.3900548,11.417563 5.3075498,11.270408 5.1836256,11.158128 5.0683924,11.038276 4.9580701,10.923532 4.8506456,10.809081 4.7348179,10.699654 4.5491579,10.525103 4.3410163,10.380502 4.1325567,10.235675 3.963794,10.124877 3.7928354,10.016508 3.6335681,9.892169 3.4994508,9.8052735 3.4191373,9.6843399 3.3726313,9.5344952 3.3607779,9.4791677 3.3441039,9.423882 3.3507714,9.3661612 3.3658103,9.2359725 3.4742469,9.0671646 3.5394159,8.9564555 3.6279576,8.8174286 3.7261379,8.6766769 3.8422336,8.5582523 c 0.098327,-0.086869 0.051816,-0.041642 0.1397902,-0.135415 0.078318,-0.075915 0.1728179,-0.1262518 0.2630488,-0.1847514 0.023236,-0.015065 0.044517,-0.032953 0.066775,-0.049429 0.024188,-0.015454 0.048378,-0.030911 0.072567,-0.046366 1.1517002,-0.574839 2.5261503,-1.44054 -3.0416742,1.7693047 -0.034096,0.019656 0.065545,-0.043688 0.099683,-0.063272 0.042947,-0.024638 0.1766432,-0.090394 0.2220662,-0.1130041 0.217508,-0.1033875 0.4272195,-0.2216459 0.6403515,-0.3335147 0,0 2.9649432,-2.3971411 2.9649432,-2.3971411 v 0 C 5.0710861,7.1250616 4.8674855,7.2388277 4.65973,7.3425504 4.62423,7.3598145 4.4815733,7.4297899 4.443686,7.4459059 4.4094066,7.4604871 4.3715463,7.4670885 4.3392142,7.48559 3.314578,8.0719455 1.8770527,8.7591708 0.77661774,9.5672898 0.72915102,9.6047739 0.67895228,9.638912 0.6334104,9.6787127 0.54981522,9.7517695 0.47903608,9.8420771 0.4145739,9.9316449 0.27274004,10.111919 0.1705068,10.320435 0.07569414,10.528305 c -0.11700109,0.289665 -0.19128321,0.565626 -0.08602921,0.872504 0.0414139,0.11395 0.07992274,0.232156 0.14974452,0.33292 0.0621461,0.08969 0.15492972,0.153257 0.23106563,0.22945 0.17537573,0.118916 0.34075319,0.251317 0.52240201,0.360851 0.0656072,0.03678 0.13027811,0.07524 0.19637851,0.111129 0.032059,0.01741 0.066147,0.03111 0.097327,0.05004 0.1111407,0.06749 0.2149902,0.149388 0.3200149,0.225645 0.2127471,0.166312 0.4230355,0.341566 0.5377474,0.593387 0.00825,0.0266 0.020679,0.05225 0.024754,0.0798 0.00357,0.02416 -0.00162,0.04882 -0.00212,0.07323 -0.00239,0.11671 -0.00576,0.233367 -0.00473,0.350131 -0.015129,0.224327 -0.054225,0.443285 -0.1402576,0.65245 -0.084175,0.192381 -0.1728124,0.381439 -0.3162253,0.538499 -0.084342,0.09187 -0.161855,0.153388 -0.2672605,0.220984 -0.037621,0.02413 -0.1540055,0.09078 -0.1152256,0.06856 3.1183033,-1.786475 4.1651863,-2.433231 3.0146279,-1.724356 -0.2278189,0.117367 -0.4607687,0.213166 -0.7194544,0.232577 -0.193547,-0.0034 -0.3918937,-0.0015 -0.5803747,-0.05084 0,0 -3.24165264,2.27437 -3.24165264,2.27437 z" />
    <path
       style="fill:#ff0000;stroke:#000000;stroke-width:0.264583"
       id="path1194"
       d="m 16.074116,0.25267797 c -0.355119,0.0568743 -0.71665,0.0700218 -1.075872,0.0723027 -0.417862,-0.007966 -0.833947,-0.0409419 -1.251402,-0.0103357 -0.194417,0.0168839 -0.379261,0.0780903 -0.558101,0.1531837 -0.05617,0.0235847 -0.11353,0.0454056 -0.166189,0.0760333 C 9.6723313,2.4923966 10.591988,1.6061279 9.5448217,2.638496 9.4098635,2.8150552 9.2739042,3.0090403 9.2279551,3.231626 c -0.012856,0.06228 -0.026812,0.3054557 -0.030986,0.3683482 -0.00409,0.4069395 0.09222,0.8088344 0.2257473,1.1909049 0.1877311,0.4296725 0.502916,0.7863319 0.8056546,1.1386428 0.236079,0.2792114 0.534227,0.5198089 0.693316,0.8571153 0.02318,0.049144 0.03773,0.1019115 0.05659,0.1528673 0.008,0.047634 0.02192,0.094644 0.02409,0.1429012 0.0105,0.2335408 -0.164507,0.4403 -0.296636,0.6128898 C 10.51607,7.9154812 10.328164,8.1424061 10.110074,8.3358303 10.02303,8.4130302 9.8472592,8.542749 9.7531067,8.613724 9.6518713,8.680966 9.5617513,8.7463859 9.4525699,8.7994848 c -0.0382,0.018579 -0.1554377,0.067788 -0.1185751,0.046681 1.0836432,-0.6204749 2.1722502,-1.2322482 3.2600392,-1.8454267 0.02118,-0.011938 -0.03692,0.033741 -0.05994,0.041557 -0.02549,0.00865 -0.05368,0.00409 -0.08052,0.00613 -0.03881,-0.011144 -0.07874,-0.018965 -0.116434,-0.033433 -0.07493,-0.028757 -0.222026,-0.1087421 -0.289713,-0.1424029 -0.0642,-0.031928 -0.130232,-0.060211 -0.193585,-0.093794 -0.114643,-0.06077 -0.23168,-0.1366171 -0.341739,-0.2055143 -0.04533,-0.029625 -0.09066,-0.05925 -0.135984,-0.088875 0,0 -3.1546484,2.0745225 -3.1546484,2.0745225 v 0 c 0.05283,0.019759 0.1056606,0.03952 0.158491,0.05928 0.1557938,0.07313 0.2008825,0.08759 0.3471328,0.1843474 0.053205,0.0352 0.1024255,0.076081 0.1538031,0.1138986 0.1254252,0.092321 0.2538476,0.1808313 0.3737834,0.2803731 0.011591,0.00807 0.2201209,0.1617729 0.2476641,0.1477148 C 11.331153,8.4111153 12.124189,8.230847 13.202018,7.2209435 13.536026,6.9071016 13.856996,6.5757536 14.12363,6.2016868 14.16293,6.1371158 14.20746,6.075449 14.241528,6.0079729 14.395726,5.7025883 14.388862,5.3987024 14.23859,5.0951385 14.204908,5.0332499 14.17491,4.9692088 14.137543,4.9094725 13.930834,4.5790174 13.626436,4.328075 13.377042,4.0324592 13.103676,3.7146967 12.846153,3.3822443 12.696109,2.9858972 12.585338,2.6471114 12.508362,2.2964221 12.577638,1.939829 c 0.01275,-0.05167 0.02084,-0.1047187 0.03825,-0.1550092 0.07808,-0.2255268 0.242069,-0.4145355 0.42624,-0.5598821 1.102256,-0.77105571 0.0209,-0.00905 -2.93456,1.6778343 -0.05392,0.030774 0.09995,-0.073882 0.152677,-0.1066578 0.151265,-0.094037 0.31535,-0.1710193 0.483389,-0.2293014 0.05857,-0.013728 0.116588,-0.03012 0.175724,-0.041184 0.360171,-0.067389 0.728596,-0.062231 1.092862,-0.044236 0.355452,0.023714 0.09018,0.00351 0.423538,0.035037 0.12635,0.011951 0.259816,0.016309 0.384739,0.041598 0.01893,0.00383 0.03657,0.012461 0.05485,0.018692 0,0 3.19877,-2.32404173 3.19877,-2.32404173 z" />
    <path
       style="fill:#ff0000;stroke:#000000;stroke-width:0.264583"
       id="path1196"
       d="m 4.0510547,6.5623622 c 0.4483446,-0.06119 0.896594,-0.00824 1.3402807,0.059964 0.2292988,0.046076 0.4549532,0.1065628 0.6845723,0.1514642 0,0 3.1812682,-2.2386073 3.1812682,-2.2386073 v 0 C 8.9765967,4.5004881 8.6899069,4.5195249 8.4090834,4.4803425 8.1617634,4.462491 8.1875214,4.4663619 7.9345958,4.4396403 7.7061056,4.4155023 7.4689956,4.3963603 7.2643115,4.2816883 c 0,0 -3.2132568,2.2806739 -3.2132568,2.2806739 z" />
    <path
       style="fill:#ff0000;stroke:#000000;stroke-width:0.264583"
       id="path1198"
       d="m 4.1942091,9.633719 c 0.037394,0.0014 0.074807,0.00602 0.1121815,0.00419 C 4.4433175,9.631179 4.5449825,9.610203 4.6801312,9.587238 4.8964167,9.550485 5.1119314,9.510132 5.3276285,9.4701001 c 0.3302212,-0.060186 0.6639428,-0.092066 0.9994357,-0.084541 0.045109,-0.00384 0.09439,0.014531 0.137364,-0.00369 0,0 3.2518091,-2.2023033 3.2518091,-2.2023033 v 0 C 9.6027731,7.1224277 9.5448018,7.1098938 9.4139304,7.1201139 9.0382441,7.1586986 8.661398,7.1878978 8.2876429,7.2430274 8.0009533,7.2864294 7.7156478,7.3458355 7.4252504,7.3555677 c 0,0 -3.2310413,2.2781497 -3.2310413,2.2781497 z" />
  </g>
</svg>
